<?xml version="1.0" standalone="no"?>
<!DOCTYPE svg PUBLIC "-//W3C//DTD SVG 20010904//EN"
 "http://www.w3.org/TR/2001/REC-SVG-20010904/DTD/svg10.dtd">
<svg version="1.0" xmlns="http://www.w3.org/2000/svg"
 width="260.000000pt" height="260.000000pt" viewBox="0 0 260.000000 260.000000"
 preserveAspectRatio="xMidYMid meet">
<metadata>
Created by potrace 1.11, written by Peter Selinger 2001-2013
</metadata>
<g transform="translate(0.000000,260.000000) scale(0.100000,-0.100000)"
fill="#000000" stroke="none">
<path d="M1160 2532 c-123 -41 -220 -102 -321 -202 -105 -103 -127 -134 -107
-146 7 -4 10 -4 6 1 -5 5 2 13 13 19 12 6 21 14 20 19 -2 10 32 42 53 50 10 4
20 16 23 28 4 14 8 17 13 9 8 -13 40 -1 43 16 1 5 12 9 24 9 12 -1 19 3 17 7
-3 4 21 19 53 34 32 14 66 30 77 36 14 7 21 6 28 -4 6 -9 8 -8 6 7 -2 16 3 20
30 21 18 0 38 7 43 15 6 9 9 10 9 2 0 -9 7 -10 25 -3 20 8 23 7 19 -8 -5 -14
-3 -13 10 2 15 19 16 19 16 2 0 -16 2 -17 17 -5 15 12 16 12 8 -1 -6 -11 -5
-12 4 -4 14 12 80 -13 81 -31 0 -6 10 -15 23 -20 12 -6 21 -18 21 -27 -1 -12
9 -17 42 -20 38 -3 41 -1 28 13 -8 9 -12 18 -9 21 4 3 27 -14 52 -39 26 -24
52 -42 59 -39 6 2 20 -3 30 -13 11 -9 28 -20 39 -25 12 -4 15 -10 8 -14 -11
-7 -9 -65 4 -85 4 -7 8 -19 8 -27 0 -8 5 -15 12 -15 20 0 73 -67 74 -94 6
-100 19 -242 25 -269 7 -35 -3 -42 -37 -25 -23 11 -34 12 -42 4 -6 -6 -43 -11
-81 -11 -92 -1 -148 -14 -165 -39 -7 -12 -17 -21 -22 -21 -4 0 -19 -11 -33
-25 -14 -14 -22 -25 -18 -25 3 0 -4 -7 -17 -16 -13 -10 -45 -17 -76 -18 -47
-1 -56 3 -86 32 -19 18 -34 39 -34 45 0 7 -4 12 -10 12 -25 2 -56 18 -65 35
-9 16 -19 18 -68 15 -31 -3 -72 -7 -89 -9 -18 -3 -35 -1 -37 3 -8 12 -56 1
-53 -13 1 -6 -9 -10 -23 -10 -15 1 -33 -8 -46 -24 -32 -37 -108 -47 -146 -19
-21 16 -31 18 -39 10 -9 -9 -3 -16 22 -27 19 -8 29 -15 22 -15 -18 -1 -3 -39
23 -60 13 -10 28 -30 34 -45 5 -14 16 -26 23 -26 8 0 18 -21 26 -53 18 -81 43
-115 109 -145 43 -19 73 -26 122 -26 138 -1 184 38 250 209 26 66 29 70 61 73
62 5 71 -11 74 -134 3 -113 11 -164 26 -164 5 0 9 -6 9 -14 0 -7 7 -27 15 -42
15 -29 15 -30 -29 -71 -52 -50 -85 -54 -155 -23 -47 22 -81 26 -81 10 0 -13
34 -30 63 -30 14 0 27 -7 31 -15 3 -8 12 -15 20 -15 7 0 17 -7 20 -16 5 -12
13 -14 34 -9 60 17 86 13 115 -16 21 -22 27 -25 27 -12 0 15 1 15 13 -2 8 -10
19 -15 25 -11 16 10 15 -5 -2 -26 -8 -11 -27 -18 -47 -18 -19 0 -57 -6 -84
-13 -30 -7 -115 -12 -207 -12 -101 0 -157 -4 -155 -10 2 -5 19 -13 38 -17 72
-15 89 -21 89 -32 0 -6 5 -4 10 4 10 16 38 17 183 11 70 -4 78 -6 74 -22 -5
-17 17 -35 37 -30 18 4 46 -11 46 -25 0 -8 5 -14 11 -14 5 0 9 8 7 18 -3 17
33 57 102 114 30 25 32 28 16 43 -17 18 -22 40 -6 30 6 -3 10 3 10 15 0 13 5
20 13 17 6 -2 11 -14 10 -26 -2 -11 2 -21 7 -21 12 0 13 50 1 69 -5 8 -16 11
-24 8 -8 -3 -20 0 -26 6 -16 16 -14 27 4 20 14 -5 14 -2 3 23 -20 45 -58 110
-58 100 0 -6 -6 -1 -14 9 -8 11 -19 16 -30 12 -9 -4 -16 -2 -16 3 0 6 5 10 11
10 8 0 8 4 2 13 -6 6 -13 19 -16 29 -5 14 -1 15 31 6 20 -6 73 -8 117 -6 134
8 200 59 226 175 7 29 16 53 21 53 10 0 10 -1 12 -62 1 -28 -2 -48 -9 -48 -13
0 -58 -78 -51 -89 7 -11 -18 -33 -27 -24 -4 3 -7 1 -7 -5 0 -6 4 -13 9 -16 9
-6 -24 -113 -41 -133 -6 -7 -8 -20 -4 -28 3 -8 1 -15 -4 -15 -6 0 -9 -3 -9 -7
3 -21 -2 -33 -13 -27 -7 4 -8 3 -4 -4 4 -7 4 -17 0 -24 -4 -7 -9 -22 -10 -34
-2 -16 2 -21 12 -17 8 3 13 10 12 17 -2 6 2 11 7 11 6 0 9 -7 7 -15 -10 -49
-9 -64 3 -76 7 -7 16 -10 21 -6 5 4 3 0 -2 -8 -6 -8 -14 -28 -18 -43 -4 -15
-11 -25 -16 -22 -6 4 -18 -1 -27 -10 -11 -12 -13 -19 -5 -24 22 -13 -2 -80
-46 -128 -16 -18 -34 -33 -40 -33 -5 0 -15 -7 -22 -15 -10 -11 -16 -12 -26 -4
-11 9 -16 5 -26 -15 -6 -16 -17 -25 -25 -22 -7 3 -13 0 -13 -7 0 -9 -2 -9 -8
0 -4 7 -12 9 -17 5 -14 -10 -17 -32 -5 -32 5 0 1 -9 -10 -20 -11 -11 -24 -20
-30 -20 -5 0 -10 -4 -10 -10 0 -17 -65 -40 -110 -40 -25 1 -78 -3 -118 -8 -40
-4 -75 -5 -78 0 -3 4 -16 8 -30 8 -30 0 -66 25 -146 103 -33 32 -62 56 -64 54
-2 -2 33 -42 77 -90 73 -79 138 -127 170 -127 23 0 189 -84 189 -95 0 -25 -28
-48 -59 -48 -26 0 -29 -2 -15 -10 25 -14 133 -2 179 21 61 30 98 33 88 5 -5
-11 -3 -14 6 -8 8 4 6 -4 -4 -19 -10 -14 -14 -26 -10 -26 15 0 -28 -40 -44
-41 -13 0 -13 -2 2 -7 15 -7 16 -10 3 -27 -12 -17 -11 -21 10 -37 23 -18 24
-18 61 4 21 13 50 29 65 36 30 13 62 6 51 -11 -3 -6 -1 -7 5 -3 7 4 12 3 12
-2 0 -6 10 -8 23 -4 18 4 20 3 11 -9 -6 -8 -14 -33 -18 -56 l-6 -43 305 0 305
0 0 53 0 53 -87 46 c-49 25 -123 60 -165 78 -43 17 -78 36 -78 41 0 5 -14 45
-30 88 -34 87 -98 181 -110 161 -9 -15 -20 49 -20 123 0 32 -4 56 -9 53 -5 -3
6 29 25 72 38 87 60 190 69 319 9 118 12 153 27 253 6 47 12 104 12 128 1 23
4 42 8 42 3 0 9 8 11 18 3 9 5 -13 6 -49 0 -36 4 -88 7 -115 4 -33 2 -44 -4
-35 -7 10 -11 2 -14 -28 -3 -36 -1 -40 14 -35 13 4 18 0 18 -15 0 -12 5 -21
10 -21 20 0 60 52 64 84 13 85 14 106 5 106 -9 0 -13 -14 -10 -37 1 -7 -3 -13
-9 -13 -6 0 -10 16 -8 40 2 40 12 52 21 28 4 -10 8 -10 16 2 5 8 7 18 4 24 -3
5 -1 6 5 2 15 -9 52 65 52 103 0 56 -67 65 -147 20 -32 -18 -34 -18 -29 -2 3
10 -3 35 -14 56 -21 38 -28 89 -10 71 8 -8 16 -37 19 -66 1 -12 49 -10 56 2 3
5 1 29 -6 52 -10 39 -14 65 -21 136 -1 12 -6 22 -11 22 -5 0 -5 10 -2 21 5 15
4 19 -4 15 -6 -4 -12 -2 -12 3 -2 14 -3 20 -13 55 -6 23 -9 27 -17 15 -6 -9
-8 3 -6 38 1 30 -1 49 -7 46 -5 -4 -7 3 -4 15 4 15 0 23 -13 27 -26 9 -25 35
1 28 26 -7 26 -3 -12 64 -71 126 -226 256 -384 323 -69 29 -92 34 -179 37 -76
2 -113 -1 -155 -15z m-200 -882 c11 -7 7 -10 -18 -10 -20 0 -31 4 -27 10 8 13
26 13 45 0z m-60 -54 c0 -2 -11 -6 -25 -8 -13 -3 -22 -1 -19 3 5 9 44 13 44 5z
m1013 -3 c-7 -2 -21 -2 -30 0 -10 3 -4 5 12 5 17 0 24 -2 18 -5z m118 -56
c-16 -16 -26 0 -10 19 9 11 15 12 17 4 2 -6 -1 -17 -7 -23z m-1042 -27 c6 0
14 -6 16 -12 4 -9 26 -13 68 -12 79 1 90 -2 76 -27 -7 -14 -6 -19 2 -19 6 0 9
-7 5 -15 -7 -19 3 -47 15 -39 17 10 9 -9 -17 -44 -42 -54 -102 -76 -195 -69
-98 6 -151 34 -178 91 -35 74 -39 166 -7 166 7 0 34 -11 59 -24 46 -25 46 -25
70 -5 14 10 33 19 42 19 10 0 14 5 10 13 -4 6 0 4 8 -5 8 -10 19 -18 26 -18z
m91 20 c0 -5 -5 -10 -11 -10 -5 0 -7 5 -4 10 3 6 8 10 11 10 2 0 4 -4 4 -10z
m765 -106 c-27 -101 -74 -135 -196 -142 -87 -5 -135 7 -170 44 -19 20 -21 27
-10 33 8 6 12 19 9 35 -4 19 -1 26 9 24 7 -2 19 8 26 22 12 22 19 25 68 24
l54 -2 -45 12 -45 12 49 6 c56 7 86 1 65 -13 -9 -5 -5 -10 13 -14 15 -4 31 -4
36 -1 5 3 24 1 40 -5 29 -10 34 -8 69 27 32 33 38 36 41 19 2 -10 -4 -46 -13
-81z m186 43 c-25 -26 -28 -6 -4 23 11 12 19 16 22 9 2 -6 -6 -21 -18 -32z m5
-149 c-8 -39 -46 -84 -46 -55 0 9 4 17 10 17 5 0 12 16 16 35 3 19 11 35 16
35 6 0 8 -13 4 -32z m-472 -263 c-4 -8 -7 -15 -9 -15 -2 0 -5 7 -9 15 -3 9 0
15 9 15 9 0 12 -6 9 -15z m36 -740 c-7 -8 -17 -15 -22 -15 -6 0 -5 7 2 15 7 8
17 15 22 15 6 0 5 -7 -2 -15z m70 -115 c0 -5 -5 -10 -11 -10 -5 0 -7 5 -4 10
3 6 8 10 11 10 2 0 4 -4 4 -10z m-40 -50 c0 -5 -8 -10 -17 -10 -15 0 -16 2 -3
10 19 12 20 12 20 0z"/>
<path d="M490 1560 c0 -5 14 -31 30 -57 28 -44 44 -38 20 8 -8 14 -7 19 1 19
7 0 5 8 -6 20 -19 21 -45 27 -45 10z"/>
<path d="M627 1550 c8 -28 20 -34 19 -8 0 12 -6 23 -13 25 -7 3 -9 -3 -6 -17z"/>
<path d="M616 1435 c-3 -9 0 -26 6 -38 13 -22 13 -21 16 7 4 33 -12 56 -22 31z"/>
<path d="M1940 1195 c0 -8 4 -15 9 -15 5 0 11 7 15 15 3 9 0 15 -9 15 -8 0
-15 -7 -15 -15z"/>
<path d="M1718 890 c-4 -44 4 -41 20 8 9 25 8 32 -2 32 -9 0 -15 -15 -18 -40z"/>
<path d="M1561 768 c-1 -16 -5 -29 -11 -29 -5 -1 -16 -2 -22 -3 -12 -1 -13
-80 -2 -98 8 -12 -8 -38 -24 -38 -12 0 -13 -3 -5 -11 18 -18 41 -3 58 37 11
28 12 40 4 50 -9 11 -7 14 9 14 27 0 38 17 15 23 -15 4 -16 5 -2 6 23 1 31 27
13 41 -8 7 -14 9 -15 4 0 -5 -4 0 -9 11 -8 18 -9 17 -9 -7z"/>
<path d="M1696 743 c-6 -14 -5 -15 5 -6 7 7 10 15 7 18 -3 3 -9 -2 -12 -12z"/>
<path d="M754 495 c-12 -17 -36 -64 -54 -105 -17 -41 -35 -82 -39 -90 -8 -15
-51 -34 -236 -104 l-90 -34 -3 -81 -3 -81 294 0 294 0 -44 87 c-76 153 -86
186 -92 318 l-6 120 -21 -30z"/>
<path d="M1490 189 c0 -5 5 -7 10 -4 6 3 10 8 10 11 0 2 -4 4 -10 4 -5 0 -10
-5 -10 -11z"/>
<path d="M1387 133 c-14 -13 -6 -30 18 -41 32 -15 35 -15 35 -1 0 5 -5 7 -12
3 -7 -5 -8 -3 -2 7 16 26 12 39 -10 39 -13 0 -26 -3 -29 -7z"/>
<path d="M1375 80 c-3 -5 1 -10 9 -10 9 0 16 5 16 10 0 6 -4 10 -9 10 -6 0
-13 -4 -16 -10z"/>
</g>
</svg>
